PathFileType	4	(X/Y/Z)	24_1_6_p0_0-254_filt_butterworth.trc
DataRate	CameraRate	NumFrames	NumMarkers	Units	OrigDataRate	OrigDataStartFrame	OrigNumFrames
60.0	60.0	7	27	m	60.0	127	254
Frame#	Time	RHip			RKnee			RAnkle			RBigToe			RSmallToe			RHeel			LHip			LKnee			LAnkle			LBigToe			LSmallToe			LHeel			Neck			Head			Nose			RShoulder			RElbow			RWrist			RThumb			RIndex			RPinky			LShoulder			LElbow			LWrist			LThumb			LIndex			LPinky			
		X1	Y1	Z1	X2	Y2	Z2	X3	Y3	Z3	X4	Y4	Z4	X5	Y5	Z5	X6	Y6	Z6	X7	Y7	Z7	X8	Y8	Z8	X9	Y9	Z9	X10	Y10	Z10	X11	Y11	Z11	X12	Y12	Z12	X13	Y13	Z13	X14	Y14	Z14	X15	Y15	Z15	X16	Y16	Z16	X17	Y17	Z17	X18	Y18	Z18	X19	Y19	Z19	X20	Y20	Z20	X21	Y21	Z21	X22	Y22	Z22	X23	Y23	Z23	X24	Y24	Z24	X25	Y25	Z25	X26	Y26	Z26	X27	Y27	Z27	
127	2.1166666666666667	0.4869858101872211	0.47692347968458026	0.8586608060020687	0.47506042081682137	0.5569024597903067	1.2925002725649963	0.4352896058691141	0.6813955241085969	1.6920524304690723	0.4003058876694516	0.4876064194285456	1.6865946312870674	0.4611931337466419	0.504079235294443	1.6824839503082158	0.43542683903277607	0.724777668531878	1.7447495850727466	0.28545659049700967	0.47381146429349247	0.861976840648814	0.25745126571517984	0.5150936670572556	1.2613285106732657	0.21622696298964353	0.6539177876563909	1.69077653218404	0.22860421336816422	0.469970010500776	1.6773747599014255	0.18241515503638644	0.536343658154241	1.697257261490072	0.2323634096040309	0.6934596426703561	1.7220701753613272	0.40913997359431253	0.3889533180704741	0.36193626641573046	0.4218180160242538	0.31833661743264374	0.1266861937587388	0.41045399232846447	0.2872402219057155	0.2559104426482047	0.5552404293041092	0.4299451520992293	0.4462029316436732	0.5837194848524013	0.45157059778962066	0.6998502633616528	0.49385097695821256	0.30245281621110115	0.869695441616688	0.40221543734541254	0.27070384928957825	0.9330969552342143	0.404321253043204	0.2886533700732783	0.9858035447672696	0.4221614176549645	0.38266713360224003	1.000920007187778	0.2652809684570385	0.408324161256221	0.4541739841934902	0.2187835587046779	0.4413380938324864	0.6841443033764085	0.31928109433095814	0.33453441935316	0.8610379182545103	0.3860475763365754	0.2660905824758345	0.9111068021200306	0.39747335882533597	0.27320183989783114	0.9345329169146841	0.38403346322924	0.32329216800011173	0.9557162592131516
128	2.1333333333333333	0.4869973896939279	0.47694414004874847	0.8586780693159257	0.47506370369706863	0.5568750806019678	1.2925375149068667	0.43528411822044566	0.681453498592146	1.6921084009683125	0.3999502031976303	0.48782216433854575	1.6881181863802122	0.46118931537118046	0.5040248241341787	1.6824744113425312	0.4352845534369754	0.7244366339104015	1.7441302917401198	0.28552387538869356	0.47400125797628956	0.8628523857301169	0.25838070998822066	0.5135776965653385	1.260593999030108	0.21533012168968851	0.6538991723195923	1.6907697534791262	0.22845338518163777	0.4681763116147915	1.676541725481739	0.1823812376083315	0.5364011818635142	1.6971684597012344	0.23225532469377175	0.6931145232097682	1.7219812510490804	0.4101034274711953	0.38904925798681733	0.36194165845198983	0.4231117683997834	0.31907206561384227	0.12662012265151742	0.4108792786520287	0.28770977396443453	0.25581941831198973	0.5555093329033229	0.4311756066244491	0.44624473011287125	0.583659844627206	0.4515724732880789	0.6998516682770839	0.4939103350906109	0.3027441643692089	0.8697359607706905	0.4023230014884091	0.27070213537395993	0.9330597197447354	0.4043865864388225	0.288653884898373	0.9857880143991057	0.4221259915957946	0.3827504915611643	1.0009025251495633	0.2657798618934678	0.4123663185591839	0.4543735844472381	0.21733577146598732	0.44443916117970506	0.6847728444948623	0.31928028114427176	0.3345338264904551	0.8610994214679595	0.3859297421611549	0.26624784076966124	0.910846156369207	0.3974746996535546	0.2732138872793435	0.9345395655090677	0.3841390260042682	0.32305556432126215	0.9556941003945822
129	2.15	0.4870061723020149	0.47696232684397266	0.8586628936864864	0.47506348798301773	0.5568336652397499	1.2925509571958955	0.43527078959806864	0.681487784162085	1.6921238730159056	0.3996788334476487	0.4880204201704885	1.6893011332061514	0.46120002931294024	0.5040186296122348	1.682408084180948	0.4349834670400977	0.7236889604977857	1.7426100790020274	0.2855828948133004	0.47389809398301563	0.8632105084019206	0.26055972344041467	0.5104605058630716	1.2598953169412643	0.21495345723925438	0.6539393979662531	1.6907074433982685	0.22854604621473024	0.4663916132241328	1.6756255421141748	0.1823719350312741	0.5364580909366472	1.697146525367022	0.23214729307992338	0.6927000715978492	1.7218436582008605	0.41106198780120906	0.3892807200167865	0.3618698536803035	0.4242007198664528	0.31989131517033337	0.12655148676044164	0.4118604962146428	0.28828880258288975	0.255787157116159	0.5555325942099566	0.43126798221209317	0.4462565204881593	0.5835903567088998	0.45154287050089487	0.6994811977573601	0.49419373513293874	0.3040475564485254	0.8699549707921193	0.4023403129471002	0.2706744923889945	0.9330205449427789	0.4045446776784355	0.28863034867912385	0.9854332083077764	0.422014796904327	0.3829886889427567	1.0009679706331431	0.26613799323893234	0.41545387508770015	0.4545334884126657	0.21543699820226792	0.44854697121955694	0.6863334070600732	0.319289532543851	0.33451769536255943	0.8612093139000334	0.38600128448276494	0.2663667648496861	0.9102419740388401	0.3974750433838847	0.273237651849792	0.9345511791997827	0.3840520824446563	0.32328806814352296	0.9556809404474831
130	2.1666666666666665	0.4870127838481919	0.4769788140702896	0.8586104240311709	0.47506241216072925	0.5567757322735666	1.2925527323245078	0.4352537805836536	0.6814755429923854	1.6921009121660562	0.39956227172231207	0.488082866131586	1.6897715249049963	0.46121958205658725	0.504118823864752	1.6823200407587855	0.43461931538959353	0.7227396006448799	1.7406177095729702	0.2856217235574937	0.4735132447957938	0.8632353797760578	0.26319635940146946	0.5072587244527066	1.258577796202069	0.21487987036419307	0.653911612075411	1.6906987162957954	0.22886880186243805	0.4643143969043253	1.674487282843946	0.18238470136347634	0.536497616876422	1.6971986278049216	0.2321049232524754	0.692488754045847	1.7217551463147547	0.411533559336253	0.389443870958464	0.36175444535499773	0.4249239230605014	0.32130179787987895	0.12645820767509203	0.41310620608032433	0.2886385875945861	0.2557227709339704	0.5554986073800673	0.4310575733707822	0.44622923184007784	0.5836634017834156	0.4515137696344275	0.6985288365289242	0.4948272856551388	0.3069004238165552	0.8704468435243853	0.4019861114395375	0.270522978325366	0.9329925042989657	0.4047522303093646	0.2884820757507629	0.9845055074291891	0.4218606057214201	0.3833356854225527	1.0011163044065925	0.26626326855943677	0.4166784610625686	0.4545997195282298	0.21400259267507343	0.45165602719300557	0.6883842357046267	0.31928913688873317	0.3345189455954402	0.8612334776444288	0.38613447249088095	0.26637989002480367	0.9094619841607212	0.39745645197269946	0.27323534668225713	0.9345495525158963	0.38341850009639933	0.3248898551296472	0.9556621956553241
131	2.183333333333333	0.4870150954014421	0.47699428830595475	0.8585166675306116	0.47506501540976775	0.5567118478495192	1.2925567890701264	0.4352376469095615	0.6814213917469655	1.6920604448174394	0.3995642616507989	0.48790837881851495	1.689689005755633	0.46121062165813514	0.5043273883662089	1.682377739117232	0.43438727019880274	0.7220442544619357	1.7391035553344907	0.28557969722919896	0.47289211350239013	0.8626746798897122	0.264523344798851	0.5067624390218035	1.256391885959769	0.21485865811516272	0.6538317237151847	1.6907359558288935	0.22929999717419647	0.46441031994256166	1.674386651201715	0.18240545722918208	0.5365041423510216	1.6972539834101676	0.2321481158464428	0.6926117825691089	1.7217324698491017	0.41159696508437643	0.3894701016668682	0.361634522291242	0.4255915694136718	0.3240141371271452	0.12629786650931898	0.41403872102218087	0.2886372864038151	0.25564565607827183	0.5554685264953353	0.43090291574835227	0.44619218444707814	0.5841874823687111	0.45155400239698884	0.6972608477585364	0.49565109473204244	0.31053960156447635	0.8710623036230188	0.4010482331009304	0.270167621196626	0.9329725365338151	0.4049079965516021	0.28821288401282225	0.9832122736307178	0.4218686570542899	0.38338513457011714	1.0012156842774889	0.26625200980330316	0.41666413736707525	0.4545945291275608	0.21343796669667492	0.45285633557223604	0.6899464284715273	0.31923891809730137	0.3346137722579884	0.8608781150916136	0.3861569424678417	0.2662759930460849	0.9088489661423033	0.39740559608335274	0.27317999714904984	0.9345207080764564	0.38215785663564	0.32811481323430364	0.9556315077622002
132	2.2	0.4870123011220115	0.47700954714876076	0.8584260151295586	0.47507342825212723	0.5566645747368368	1.2925687179107879	0.43522647244930923	0.6813581511027909	1.6920248701831244	0.3996467951128702	0.4875208004288035	1.6893479846627586	0.46109856340547783	0.5045371657193096	1.6829025399308617	0.43434989361751886	0.7218112526829612	1.7384928818433227	0.2854655754169234	0.4722996538861971	0.8617375030243358	0.26374089857896676	0.5093436931674503	1.2544086354502435	0.2148958681636951	0.6538493298191264	1.6907071675907577	0.22962950082809291	0.46888089609628797	1.676497555406379	0.18240806666158357	0.5365149441355048	1.6972820613322845	0.2322311182569353	0.6929116943072009	1.7217304661006443	0.4115236078763922	0.3894238168783956	0.3615403372063852	0.4263267317668612	0.3274825738088546	0.1261003479423859	0.4143997119233764	0.2884764548988746	0.25558204255391276	0.5554338307643818	0.4308584566179392	0.4461721286128011	0.5853576783570863	0.45173212063097956	0.6962756488438677	0.4962798185233661	0.3132471135110707	0.8714817452759334	0.3997955213705321	0.26969640016491747	0.932956725938057	0.4049650447800597	0.28798153902196283	0.9821361296247804	0.42246147244689286	0.38220528313170044	1.0008822130658732	0.26621624722892606	0.41631801016885445	0.45456660312708835	0.21340216408967017	0.45289204175790543	0.6905763280472227	0.3191117197831633	0.33487148222952723	0.8599354534295489	0.3858080625615353	0.2660282170511563	0.9085327101277214	0.39733618660241277	0.27308926358456254	0.9344719918298167	0.38101173545910977	0.3310830780734655	0.9556051268540767
133	2.216666666666667	0.487003621686318	0.4770312053436414	0.8584038322254295	0.47508443862763794	0.5566556218524905	1.2925916298512874	0.43522568508235626	0.6813150332924351	1.6920033285141869	0.39984584251711336	0.4873491710857048	1.6890474875232744	0.460840452038543	0.5046121989094952	1.6840801992773349	0.4343204780770158	0.7217943988881935	1.738438690440888	0.2853900810464828	0.47215165638359313	0.8613629444747026	0.26194732859789877	0.5124236095261362	1.2537850381949318	0.2152474419289674	0.6542519254235173	1.6904024106123179	0.2297643424037515	0.4757195397674285	1.6798617210055535	0.18238218306824272	0.5365659095776234	1.6972952377130643	0.23229484146952115	0.6931161723248486	1.721700812950039	0.4114697418418419	0.38938943276463933	0.3614913369660416	0.42689789159666447	0.3301038158517433	0.12595897692428426	0.41445960798585735	0.28843071600646836	0.2555306977070907	0.5553899931633368	0.4308938967709936	0.4461540326999951	0.5868296832251976	0.45202448936877637	0.6958621524289991	0.49652957542398846	0.31426696212239824	0.8715797040868825	0.39891129974645423	0.2693351982644224	0.9329450175068394	0.40496457467936137	0.28790628568253834	0.9816061700962819	0.4239664206442915	0.3790443389080437	0.9996202878235522	0.2661992584333189	0.41608545337299574	0.45454764295366457	0.21343018448563705	0.45280460450442944	0.6906187550624565	0.3189460503319138	0.33522890369450437	0.8586829895325836	0.38492780827341055	0.26561001057390715	0.9083876594124312	0.39728156902521744	0.2730172761241925	0.9344282351912341	0.381027648305823	0.3310662254076063	0.9555913683723505
